<svg width="32" height="32" viewBox="0 0 32 32" fill="none" xmlns="http://www.w3.org/2000/svg">
<path d="M31.8607 9.42541C31.782 7.72924 31.511 6.5664 31.1175 5.55219C30.7066 4.50301 30.1645 3.6112 29.2815 2.72814C28.3984 1.84508 27.5066 1.29426 26.4574 0.892079C25.4432 0.498636 24.2804 0.227598 22.5842 0.148909C20.8793 0.0702207 20.3372 0.0527344 16.0093 0.0527344C11.6727 0.0527344 11.1307 0.0702207 9.43448 0.148909C7.7383 0.227598 6.57546 0.498636 5.56125 0.892079C4.51207 1.30301 3.62027 1.84508 2.73721 2.72814C1.85415 3.6112 1.30333 4.50301 0.901142 5.55219C0.5077 6.5664 0.236662 7.72924 0.157973 9.42541C0.0792844 11.1303 0.0617981 11.6724 0.0617981 16.0003C0.0617981 20.3369 0.0792844 20.879 0.157973 22.5751C0.236662 24.2713 0.5077 25.4342 0.901142 26.4484C1.31207 27.4975 1.85415 28.3893 2.73721 29.2724C3.62027 30.1555 4.51207 30.7063 5.56125 31.1085C6.57546 31.5019 7.7383 31.773 9.43448 31.8516C11.1394 31.9303 11.6815 31.9478 16.0093 31.9478C20.346 31.9478 20.888 31.9303 22.5842 31.8516C24.2804 31.773 25.4432 31.5019 26.4574 31.1085C27.5066 30.6975 28.3984 30.1555 29.2815 29.2724C30.1645 28.3893 30.7154 27.4975 31.1175 26.4484C31.511 25.4342 31.782 24.2713 31.8607 22.5751C31.9394 20.8702 31.9569 20.3281 31.9569 16.0003C31.9569 11.6724 31.9394 11.1216 31.8607 9.42541ZM28.9929 22.444C28.923 24.0003 28.6607 24.8484 28.4421 25.4079C28.1536 26.1511 27.8039 26.6844 27.2443 27.244C26.6847 27.8036 26.1514 28.1445 25.4082 28.4418C24.8487 28.6604 24.0006 28.9227 22.4443 28.9926C20.7656 29.0713 20.2585 29.0888 16.0006 29.0888C11.7427 29.0888 11.2356 29.0713 9.55688 28.9926C8.0006 28.9227 7.15251 28.6604 6.59295 28.4418C5.84978 28.1533 5.31644 27.8036 4.75688 27.244C4.19732 26.6844 3.85633 26.1511 3.55907 25.4079C3.34049 24.8484 3.07819 24.0003 3.00825 22.444C2.92956 20.7653 2.91207 20.2582 2.91207 16.0003C2.91207 11.7424 2.92956 11.2352 3.00825 9.55656C3.07819 8.00028 3.34049 7.15219 3.55907 6.59263C3.84759 5.84946 4.19732 5.31612 4.75688 4.75656C5.31644 4.197 5.84978 3.85601 6.59295 3.55875C7.15251 3.34017 8.0006 3.07787 9.55688 3.00793C11.2356 2.92924 11.7427 2.91175 16.0006 2.91175C20.2585 2.91175 20.7656 2.92924 22.4443 3.00793C24.0006 3.07787 24.8487 3.34017 25.4082 3.55875C26.1514 3.84727 26.6847 4.197 27.2443 4.75656C27.8039 5.31612 28.1449 5.84946 28.4421 6.59263C28.6607 7.15219 28.923 8.00028 28.9929 9.55656C29.0716 11.2352 29.0891 11.7424 29.0891 16.0003C29.0891 20.2582 29.0629 20.7653 28.9929 22.444Z" fill="url(#paint0_linear)"/>
<path d="M16 7.80811C11.471 7.80811 7.80765 11.4802 7.80765 16.0005C7.80765 20.5294 11.4798 24.1928 16 24.1928C20.5202 24.1928 24.1923 20.5207 24.1923 16.0005C24.1923 11.4715 20.529 7.80811 16 7.80811ZM16 21.3163C13.0623 21.3163 10.6842 18.9382 10.6842 16.0005C10.6842 13.0627 13.0623 10.6846 16 10.6846C18.9377 10.6846 21.3158 13.0627 21.3158 16.0005C21.3158 18.9382 18.9377 21.3163 16 21.3163Z" fill="url(#paint1_linear)"/>
<path d="M24.516 9.39867C25.5734 9.39867 26.4307 8.54144 26.4307 7.484C26.4307 6.42656 25.5734 5.56934 24.516 5.56934C23.4586 5.56934 22.6013 6.42656 22.6013 7.484C22.6013 8.54144 23.4586 9.39867 24.516 9.39867Z" fill="#BC30A0"/>
<path d="M0.0437164 16.0003C0.0437164 20.3369 0.0612028 20.879 0.139891 22.5751C0.21858 24.2713 0.489618 25.4342 0.883061 26.4484C1.29399 27.4975 1.83607 28.3893 2.71913 29.2724C3.60219 30.1555 4.49399 30.7063 5.54317 31.1085C6.55738 31.5019 7.72022 31.773 9.41639 31.8516C11.1213 31.9303 11.6634 31.9478 15.9913 31.9478C20.3279 31.9478 20.8699 31.9303 22.5661 31.8516C24.2623 31.773 25.4251 31.5019 26.4393 31.1085C27.4885 30.6975 28.3803 30.1555 29.2634 29.2724C30.1464 28.3893 30.6973 27.4975 31.0995 26.4484C31.4929 25.4342 31.7639 24.2713 31.8426 22.5751C31.9213 20.8702 31.9388 20.3281 31.9388 16.0003C31.9388 11.6637 31.9213 11.1216 31.8426 9.42541C31.7639 7.72924 31.4929 6.5664 31.0995 5.55219C30.6885 4.50301 30.1464 3.6112 29.2634 2.72814C28.3803 1.84508 27.4885 1.29426 26.4393 0.892079C25.4251 0.498636 24.2623 0.227598 22.5661 0.148909C20.8612 0.0702207 20.3191 0.0527344 15.9913 0.0527344C11.6546 0.0527344 11.1126 0.0702207 9.41639 0.148909C7.72022 0.227598 6.55738 0.498636 5.54317 0.892079C4.49399 1.30301 3.60219 1.84508 2.71913 2.72814C1.83607 3.6112 1.28525 4.50301 0.883061 5.55219C0.489618 6.5664 0.21858 7.72924 0.139891 9.42541C0.0612028 11.1216 0.0437164 11.6637 0.0437164 16.0003ZM2.92022 16.0003C2.92022 11.7424 2.93771 11.2352 3.01639 9.55656C3.08634 8.00028 3.34863 7.15219 3.56721 6.59263C3.85574 5.84946 4.20547 5.31612 4.76503 4.75656C5.32459 4.197 5.85792 3.85601 6.60109 3.55875C7.16066 3.34017 8.00874 3.07787 9.56503 3.00793C11.2437 2.92924 11.7508 2.91175 16.0087 2.91175C20.2667 2.91175 20.7738 2.92924 22.4525 3.00793C24.0087 3.07787 24.8568 3.34017 25.4164 3.55875C26.1596 3.84727 26.6929 4.197 27.2525 4.75656C27.812 5.31612 28.153 5.84946 28.4503 6.59263C28.6689 7.15219 28.9311 8.00028 29.0011 9.55656C29.0798 11.2352 29.0973 11.7424 29.0973 16.0003C29.0973 20.2582 29.0798 20.7653 29.0011 22.444C28.9311 24.0003 28.6689 24.8484 28.4503 25.4079C28.1618 26.1511 27.812 26.6844 27.2525 27.244C26.6929 27.8036 26.1596 28.1445 25.4164 28.4418C24.8568 28.6604 24.0087 28.9227 22.4525 28.9926C20.7738 29.0713 20.2667 29.0888 16.0087 29.0888C11.7508 29.0888 11.2437 29.0713 9.56503 28.9926C8.00874 28.9227 7.16066 28.6604 6.60109 28.4418C5.85792 28.1533 5.32459 27.8036 4.76503 27.244C4.20547 26.6844 3.86448 26.1511 3.56721 25.4079C3.34863 24.8484 3.08634 24.0003 3.01639 22.444C2.93771 20.7653 2.92022 20.2582 2.92022 16.0003Z" fill="url(#paint2_linear)"/>
<defs>
<linearGradient id="paint0_linear" x1="10.4688" y1="-2.50557" x2="20.9199" y2="32.4569" gradientUnits="userSpaceOnUse">
<stop stop-color="#4367DC"/>
<stop offset="0.04289" stop-color="#4C62D6"/>
<stop offset="0.1142" stop-color="#6654C7"/>
<stop offset="0.2045" stop-color="#8F3DAE"/>
<stop offset="0.2341" stop-color="#9E35A5"/>
<stop offset="0.4512" stop-color="#D42F7F"/>
<stop offset="0.8242" stop-color="#D73578"/>
</linearGradient>
<linearGradient id="paint1_linear" x1="19.9091" y1="9.42806" x2="11.5307" y2="23.5148" gradientUnits="userSpaceOnUse">
<stop offset="0.3304" stop-color="#D42F7F"/>
<stop offset="1" stop-color="#F7772E"/>
</linearGradient>
<linearGradient id="paint2_linear" x1="19.9306" y1="6.62535" x2="9.65466" y2="31.1345" gradientUnits="userSpaceOnUse">
<stop stop-color="#9E35A5" stop-opacity="0"/>
<stop offset="0.4512" stop-color="#D42F7F" stop-opacity="0.5"/>
<stop offset="0.7524" stop-color="#F7772E"/>
<stop offset="1" stop-color="#FEF780"/>
</linearGradient>
</defs>
</svg>
