<svg width="36" height="32" viewBox="0 0 36 32" fill="none" xmlns="http://www.w3.org/2000/svg">
<path fill-rule="evenodd" clip-rule="evenodd" d="M36 3.78823C34.6772 4.43078 33.253 4.8653 31.7591 5.05945C33.2847 4.06097 34.4554 2.47772 35.0069 0.591699C33.5784 1.51622 32 2.1888 30.3138 2.54937C28.9699 0.97999 27.0491 0 24.9234 0C20.8473 0 17.5404 3.61719 17.5404 8.078C17.5404 8.7113 17.6038 9.32612 17.7306 9.91781C11.5922 9.58036 6.15108 6.36764 2.50607 1.47461C1.87005 2.67186 1.50659 4.06096 1.50659 5.5402C1.50659 8.3415 2.81036 10.8146 4.7924 12.2638C3.58373 12.2245 2.44268 11.857 1.44532 11.2561V11.3554C1.44532 15.2708 3.99154 18.5367 7.37242 19.2763C6.7533 19.4658 6.10037 19.5606 5.42631 19.5606C4.95087 19.5606 4.486 19.512 4.03592 19.4173C4.97623 22.6254 7.70205 24.9621 10.935 25.0245C8.40781 27.1925 5.22134 28.4845 1.76228 28.4845C1.1664 28.4845 0.576862 28.4475 0 28.3736C3.26889 30.6618 7.15267 32 11.3217 32C24.9086 32 32.336 19.6923 32.336 9.01639C32.336 8.66508 32.3296 8.31376 32.3169 7.96937C33.7602 6.8299 35.0132 5.40846 36 3.78823Z" fill="#00AAEC"/>
</svg>
