<svg width="563" height="412" viewBox="0 0 563 412" fill="none" xmlns="http://www.w3.org/2000/svg">
<path d="M60.3876 244.092C58.1088 248.156 53.118 248.715 45.1218 247.943C39.1088 247.36 33.6249 246.91 27.611 243.633C23.4022 241.341 20.0702 238.24 17.6383 235.229C15.0029 231.966 11.324 228.242 13.1271 224.542C15.6055 219.46 29.9354 215.18 43.8506 222.18C59.1368 229.871 62.617 240.119 60.3876 244.092Z" fill="#F9FAFB"/>
<path d="M517.298 217.281C507.98 224.226 493.194 220.173 493.194 220.173C493.194 220.173 493.523 204.862 502.846 197.923C512.164 190.978 526.943 195.025 526.943 195.025C526.943 195.025 526.615 210.336 517.298 217.281Z" fill="#F9FAFB"/>
<path d="M42.3973 85.3425C51.254 95.5874 69.1019 94.6898 69.1019 94.6898C69.1019 94.6898 72.5792 77.1823 63.7129 66.9422C54.8563 56.6972 37.0171 57.5891 37.0171 57.5891C37.0171 57.5891 33.5407 75.0975 42.3973 85.3425Z" fill="#F9FAFB"/>
<path d="M259.203 411.101C254.982 411.101 251.56 407.682 251.56 403.463C251.56 399.245 254.982 395.825 259.203 395.825C263.424 395.825 266.845 399.245 266.845 403.463C266.845 407.682 263.424 411.101 259.203 411.101Z" fill="#E5E7EB"/>
<path d="M325.846 348.708C321.206 348.708 317.444 344.949 317.444 340.311C317.444 335.674 321.206 331.915 325.846 331.915C330.485 331.915 334.247 335.674 334.247 340.311C334.247 344.949 330.485 348.708 325.846 348.708Z" fill="#E5E7EB"/>
<path d="M490.875 91.4207C487.13 91.4207 484.093 88.3859 484.093 84.6424C484.093 80.8988 487.13 77.864 490.875 77.864C494.621 77.864 497.658 80.8988 497.658 84.6424C497.658 88.3859 494.621 91.4207 490.875 91.4207Z" fill="#E5E7EB"/>
<path d="M18.9935 120.201C20.1925 124.673 17.5371 129.27 13.0625 130.468C8.58801 131.666 3.98873 129.012 2.78979 124.54C1.59084 120.068 4.24623 115.472 8.72077 114.273C13.1953 113.075 17.7946 115.729 18.9935 120.201Z" fill="#E5E7EB"/>
<path d="M144.514 48.2262C138.351 48.2262 133.355 43.2332 133.355 37.074C133.355 30.9147 138.351 25.9217 144.514 25.9217C150.677 25.9217 155.673 30.9147 155.673 37.074C155.673 43.2332 150.677 48.2262 144.514 48.2262Z" fill="#E5E7EB"/>
<path d="M554.294 313.218C549.554 313.218 545.711 310.146 545.711 306.356C545.711 302.566 549.554 299.493 554.294 299.493C559.035 299.493 562.878 302.566 562.878 306.356C562.878 310.146 559.035 313.218 554.294 313.218Z" fill="#E5E7EB"/>
<path d="M59.187 373.287C59.187 380.092 53.6671 385.609 46.8579 385.609C40.0487 385.609 34.5288 380.092 34.5288 373.287C34.5288 366.482 40.0487 360.965 46.8579 360.965C53.6671 360.965 59.187 366.482 59.187 373.287Z" fill="#E5E7EB"/>
<path d="M472.004 296.07H472.228C473.558 314.899 487.569 315.19 487.569 315.19C487.569 315.19 472.119 315.491 472.119 337.248C472.119 315.491 456.669 315.19 456.669 315.19C456.669 315.19 470.674 314.899 472.004 296.07Z" fill="#E5E7EB"/>
<path d="M247.31 252.114H392.894M132.922 376.825H424.089C447.061 376.825 465.685 358.213 465.685 335.254V44.2532C465.685 21.294 447.061 2.68167 424.089 2.68167H216.112C193.14 2.68167 174.517 21.294 174.517 44.2532V335.254C174.517 358.213 155.894 376.825 132.922 376.825C109.948 376.825 91.3262 358.213 91.3262 335.254V106.611C91.3262 83.6508 109.948 65.0394 132.922 65.0394H174.517L132.922 376.825ZM247.31 85.8257H392.894H247.31ZM247.31 168.969H392.894H247.31Z" stroke="#E5E7EB" stroke-width="4" stroke-linecap="round" stroke-linejoin="round"/>
<path fill-rule="evenodd" clip-rule="evenodd" d="M96.2209 218.177C96.2209 266.399 135.331 305.486 183.58 305.486C231.828 305.486 270.938 266.399 270.938 218.177C270.938 169.957 231.828 130.869 183.58 130.869C135.331 130.869 96.2209 169.957 96.2209 218.177Z" fill="#F9FAFB" stroke="#8B5CF6" stroke-width="20.082" stroke-linecap="round" stroke-linejoin="round"/>
<path d="M77.1599 324.535L114.486 287.23" stroke="#8B5CF6" stroke-width="20.082" stroke-linecap="round" stroke-linejoin="round"/>
<path fill-rule="evenodd" clip-rule="evenodd" d="M357.169 323.886V283.633C357.17 276.979 358.916 270.442 362.235 264.674C365.553 258.906 370.327 254.108 376.081 250.76L414.14 228.622C419.953 225.242 426.559 223.462 433.284 223.462C440.009 223.462 446.615 225.242 452.428 228.622L490.487 250.76C496.242 254.106 501.019 258.903 504.339 264.672C507.658 270.44 509.406 276.978 509.407 283.633V323.886C509.406 330.539 507.659 337.076 504.341 342.844C501.023 348.613 496.249 353.41 490.496 356.759L452.436 378.897C446.623 382.276 440.017 384.057 433.292 384.057C426.567 384.057 419.962 382.276 414.148 378.897L376.088 356.759C370.333 353.412 365.557 348.615 362.237 342.847C358.917 337.078 357.17 330.54 357.169 323.886Z" fill="#8B5CF6"/>
<path d="M433.288 303.76V265.722V303.76ZM433.279 333.344C433.002 333.344 432.727 333.398 432.471 333.505C432.214 333.611 431.982 333.767 431.786 333.963C431.59 334.16 431.435 334.393 431.33 334.649C431.225 334.906 431.172 335.181 431.174 335.458C431.174 335.877 431.298 336.286 431.531 336.634C431.764 336.981 432.095 337.252 432.482 337.412C432.869 337.572 433.294 337.613 433.705 337.531C434.115 337.448 434.492 337.246 434.788 336.949C435.083 336.653 435.284 336.275 435.364 335.865C435.445 335.454 435.402 335.029 435.24 334.642C435.078 334.256 434.806 333.927 434.457 333.696C434.108 333.465 433.698 333.342 433.279 333.344Z" stroke="#F9FAFB" stroke-width="13.094" stroke-linecap="round" stroke-linejoin="round"/>
</svg>
