<svg width="445" height="313" viewBox="0 0 445 313" fill="none" xmlns="http://www.w3.org/2000/svg">
<path d="M67.7725 69.4492C83.2025 62.8144 102.421 67.0181 121.19 69.9357C121.364 66.4025 123.481 62.1024 121.264 59.6375C118.57 56.6428 118.818 53.4962 120.439 50.3315C124.585 42.2389 118.645 33.628 112.648 26.468C111.296 24.8579 109.588 23.5927 107.661 22.7754C105.735 21.958 103.645 21.6116 101.562 21.7641L90.4521 22.5663C87.7487 22.7615 85.1688 23.7867 83.0575 25.5048C80.9462 27.2228 79.4043 29.5517 78.6381 32.1799C75.9853 35.8272 74.5655 39.4644 75.4594 43.0827C71.486 45.8278 70.8185 49.1414 72.604 52.8769C74.118 55.2289 74.1019 57.5183 72.5351 59.7444C70.4774 62.5826 68.9015 65.7471 67.8718 69.1084L67.7725 69.4492Z" fill="#2F2E41"/>
<path d="M434.455 270.583H119.971C117.174 270.583 114.492 269.46 112.515 267.461C110.537 265.462 109.426 262.75 109.426 259.923C223.427 246.529 335.285 246.529 445 259.923C445 262.75 443.889 265.462 441.911 267.461C439.934 269.46 437.252 270.583 434.455 270.583Z" fill="#2F2E41"/>
<path d="M445 260.55L109.426 259.923L148.318 193.767L148.504 193.453V47.6515C148.504 45.8818 148.849 44.1294 149.519 42.4944C150.188 40.8593 151.17 39.3737 152.408 38.1223C153.646 36.8709 155.115 35.8783 156.733 35.2011C158.35 34.524 160.084 34.1755 161.834 34.1757H390.731C392.482 34.1755 394.215 34.524 395.833 35.2011C397.45 35.8783 398.919 36.8709 400.157 38.1223C401.395 39.3737 402.377 40.8593 403.047 42.4944C403.717 44.1294 404.061 45.8818 404.061 47.6515V194.456L445 260.55Z" fill="#3F3D56"/>
<path d="M161.53 43.5818C160.379 43.5831 159.275 44.046 158.461 44.8689C157.647 45.6918 157.19 46.8075 157.188 47.9713V180.912C157.19 182.075 157.647 183.191 158.461 184.014C159.275 184.837 160.379 185.3 161.53 185.301H392.896C394.047 185.3 395.151 184.837 395.965 184.014C396.779 183.191 397.237 182.075 397.238 180.912V47.9713C397.237 46.8076 396.779 45.6919 395.965 44.869C395.151 44.0461 394.047 43.5831 392.896 43.5818H161.53Z" fill="white"/>
<path d="M162.5 202.859C162.144 202.86 161.796 202.963 161.496 203.157C161.197 203.351 160.958 203.628 160.809 203.954L148.825 230.291C148.695 230.578 148.638 230.893 148.659 231.208C148.681 231.523 148.78 231.827 148.949 232.093C149.117 232.358 149.349 232.577 149.623 232.728C149.896 232.88 150.203 232.959 150.516 232.959H402.528C402.845 232.959 403.157 232.877 403.434 232.721C403.711 232.565 403.944 232.339 404.111 232.067C404.278 231.794 404.373 231.482 404.387 231.162C404.401 230.842 404.334 230.523 404.192 230.236L391.166 203.899C391.012 203.586 390.775 203.323 390.481 203.139C390.187 202.955 389.848 202.858 389.502 202.859H162.5Z" fill="#2F2E41"/>
<path d="M276.283 41.3871C277.824 41.3871 279.074 40.1237 279.074 38.5653C279.074 37.0068 277.824 35.7434 276.283 35.7434C274.741 35.7434 273.491 37.0068 273.491 38.5653C273.491 40.1237 274.741 41.3871 276.283 41.3871Z" fill="white"/>
<path d="M251.512 237.975C251.103 237.976 250.705 238.113 250.381 238.364C250.056 238.616 249.822 238.968 249.715 239.367L246.709 250.655C246.635 250.934 246.625 251.226 246.681 251.509C246.736 251.793 246.855 252.059 247.029 252.288C247.203 252.518 247.426 252.703 247.682 252.831C247.939 252.959 248.22 253.025 248.506 253.025H305.674C305.97 253.025 306.263 252.954 306.526 252.816C306.79 252.679 307.017 252.48 307.189 252.235C307.361 251.991 307.473 251.708 307.515 251.412C307.557 251.115 307.529 250.812 307.431 250.529L303.567 239.241C303.44 238.872 303.203 238.551 302.888 238.324C302.572 238.098 302.195 237.976 301.808 237.975H251.512Z" fill="#2F2E41"/>
<path d="M404.061 191.258V193.766H148.318L148.51 193.453V191.258H404.061Z" fill="#2F2E41"/>
<path d="M396.928 87.7907C420.908 87.7907 440.348 68.1381 440.348 43.8953C440.348 19.6526 420.908 0 396.928 0C372.948 0 353.508 19.6526 353.508 43.8953C353.508 68.1381 372.948 87.7907 396.928 87.7907Z" fill="#892CFF"/>
<path d="M414.916 63.0212H378.94C378.282 63.0205 377.651 62.756 377.186 62.2858C376.721 61.8155 376.459 61.1779 376.458 60.5129V38.5652C376.459 37.9002 376.721 37.2626 377.186 36.7923C377.651 36.3221 378.282 36.0576 378.94 36.0569H414.916C415.574 36.0576 416.205 36.3221 416.67 36.7923C417.135 37.2626 417.397 37.9002 417.397 38.5652V60.5129C417.397 61.1779 417.135 61.8155 416.67 62.2858C416.205 62.7561 415.574 63.0205 414.916 63.0212ZM378.94 38.5652V60.5129H414.918L414.916 38.5652L378.94 38.5652Z" fill="white"/>
<path d="M408.093 38.5651H385.763V28.5319C385.763 21.2648 390.459 15.9904 396.928 15.9904C403.397 15.9904 408.093 21.2648 408.093 28.5319L408.093 38.5651ZM388.244 36.0568H405.612V28.5319C405.612 22.6245 402.041 18.4987 396.928 18.4987C391.815 18.4987 388.244 22.6246 388.244 28.5319L388.244 36.0568Z" fill="white"/>
<path d="M396.928 51.4203C398.298 51.4203 399.409 50.2973 399.409 48.912C399.409 47.5267 398.298 46.4037 396.928 46.4037C395.558 46.4037 394.447 47.5267 394.447 48.912C394.447 50.2973 395.558 51.4203 396.928 51.4203Z" fill="white"/>
<path d="M366.617 140.209H187.809C186.931 140.208 186.09 139.855 185.469 139.227C184.848 138.6 184.499 137.749 184.498 136.862V92.0212C184.499 91.1337 184.848 90.2829 185.469 89.6553C186.09 89.0278 186.931 88.6747 187.809 88.6737H366.617C367.495 88.6747 368.337 89.0278 368.958 89.6553C369.578 90.2829 369.927 91.1337 369.929 92.0212V136.862C369.927 137.749 369.578 138.6 368.958 139.227C368.337 139.855 367.495 140.208 366.617 140.209ZM187.809 90.0127C187.283 90.0133 186.778 90.2251 186.405 90.6017C186.033 90.9782 185.823 91.4887 185.823 92.0212V136.862C185.823 137.394 186.033 137.905 186.405 138.281C186.778 138.658 187.283 138.869 187.809 138.87H366.617C367.144 138.869 367.649 138.658 368.021 138.281C368.394 137.905 368.603 137.394 368.604 136.862V92.0212C368.603 91.4887 368.394 90.9782 368.021 90.6016C367.649 90.2251 367.144 90.0133 366.617 90.0127L187.809 90.0127Z" fill="#E6E6E6"/>
<path d="M215.592 126.357C223.042 126.357 229.081 120.252 229.081 112.721C229.081 105.19 223.042 99.085 215.592 99.085C208.143 99.085 202.104 105.19 202.104 112.721C202.104 120.252 208.143 126.357 215.592 126.357Z" fill="#E6E6E6"/>
<path d="M246.744 103.63C246.448 103.63 246.156 103.688 245.882 103.802C245.609 103.916 245.361 104.084 245.152 104.295C244.943 104.506 244.777 104.756 244.664 105.032C244.55 105.308 244.492 105.604 244.492 105.903C244.492 106.202 244.55 106.497 244.664 106.773C244.777 107.049 244.943 107.3 245.152 107.511C245.361 107.722 245.609 107.89 245.882 108.004C246.156 108.118 246.448 108.176 246.744 108.176H352.723C353.32 108.176 353.891 107.936 354.313 107.51C354.734 107.084 354.971 106.506 354.971 105.903C354.971 105.3 354.734 104.722 354.313 104.296C353.891 103.87 353.32 103.63 352.723 103.63H246.744Z" fill="#E6E6E6"/>
<path d="M246.744 117.266C246.147 117.266 245.576 117.506 245.154 117.932C244.732 118.358 244.496 118.936 244.496 119.539C244.496 120.142 244.732 120.72 245.154 121.146C245.576 121.572 246.147 121.812 246.744 121.812H292.347C292.943 121.812 293.515 121.572 293.936 121.146C294.358 120.72 294.595 120.142 294.595 119.539C294.595 118.936 294.358 118.358 293.936 117.932C293.515 117.506 292.943 117.266 292.347 117.266H246.744Z" fill="#E6E6E6"/>
<path d="M147.878 118.186L114.824 135.951L114.406 121.146C125.194 119.326 135.459 116.156 144.949 110.995L148.406 102.36C148.783 101.419 149.395 100.594 150.183 99.9645C150.971 99.3351 151.907 98.9235 152.899 98.7703C153.892 98.6171 154.907 98.7274 155.844 99.0905C156.782 99.4536 157.61 100.057 158.247 100.841C159.18 101.989 159.646 103.452 159.551 104.934C159.456 106.416 158.808 107.806 157.737 108.823L147.878 118.186Z" fill="#FFB8B8"/>
<path d="M67.1135 220.757C66.8724 219.863 66.8212 218.927 66.9633 218.012C67.1054 217.096 67.4376 216.222 67.938 215.445L75.199 204.18C76.9164 201.515 79.5517 199.591 82.5934 198.779C85.6352 197.968 88.8666 198.328 91.6607 199.789C88.6091 205.041 89.0345 209.647 92.7146 213.651C87.0017 216.47 81.7216 220.109 77.038 224.455C76.1829 225.044 75.201 225.418 74.1739 225.546C73.1469 225.674 72.1044 225.552 71.1335 225.191C70.1625 224.829 69.2911 224.238 68.5918 223.466C67.8926 222.695 67.3857 221.766 67.1135 220.757Z" fill="#2F2E41"/>
<path d="M149.383 206.027C148.285 207.879 146.734 209.413 144.879 210.484C143.025 211.555 140.929 212.126 138.794 212.142L90.5564 212.512L88.4644 200.245L109.803 193.9L91.8116 179.942L111.477 156.677L147.194 190.332C149.282 192.3 150.639 194.931 151.037 197.788C151.435 200.645 150.852 203.553 149.383 206.027Z" fill="#2F2E41"/>
<path d="M83.0253 289.918H71.7284C61.5853 219.631 51.2607 149.146 81.7701 122.839L117.753 128.76L113.151 159.638L93.067 182.903L83.0253 289.918Z" fill="#2F2E41"/>
<path d="M92.9556 305.841C92.0713 306.085 91.1458 306.136 90.2403 305.993C89.3347 305.849 88.4694 305.513 87.7014 305.008L75.4352 303.341C72.7995 301.605 70.8955 298.941 70.0929 295.866C69.2902 292.791 69.646 289.524 71.0913 286.699C76.2858 289.784 80.8426 289.354 84.8024 285.633C87.6003 291.344 92.2102 290.996 96.6129 295.807C97.1959 296.672 97.5661 297.665 97.6927 298.703C97.8193 299.741 97.6987 300.795 97.3409 301.777C96.9831 302.758 96.3984 303.639 95.6356 304.346C94.8728 305.053 93.954 305.566 92.9556 305.841Z" fill="#2F2E41"/>
<path d="M109.803 75.887L88.8828 70.8111C92.3573 63.6211 92.6435 55.6208 90.9748 47.1238L105.201 46.7008C105.646 57.2671 106.995 67.1387 109.803 75.887Z" fill="#FFB8B8"/>
<path d="M115.553 141.496C100.324 151.987 89.5631 141.855 81.3516 126.222C82.4926 116.656 80.6451 105.209 77.2233 92.7704C75.7015 87.2841 76.2696 81.4204 78.8155 76.3369C81.3615 71.2534 85.7001 67.3196 90.9749 65.3121L108.966 72.9259C124.243 85.5146 127.25 99.1507 121.519 113.533L115.553 141.496Z" fill="#FF6363"/>
<path d="M71.728 86.4616L54.9918 95.3443L84.6986 113.11L88.8321 123.417C89.108 124.105 89.2424 124.843 89.2271 125.585C89.2118 126.327 89.0472 127.059 88.7432 127.734C88.4392 128.41 88.0023 129.016 87.459 129.516C86.9158 130.015 86.2776 130.398 85.5834 130.64C84.7943 130.915 83.9529 131.002 83.125 130.893C82.2972 130.784 81.5055 130.484 80.8119 130.014C80.1183 129.545 79.5416 128.919 79.127 128.187C78.7124 127.454 78.4711 126.635 78.4221 125.792L78.0041 118.609L40.2471 106.012C38.975 105.588 37.8151 104.877 36.8552 103.932C35.8953 102.987 35.1607 101.834 34.707 100.56C34.0455 98.7024 34.0119 96.6758 34.6112 94.797C35.2106 92.9183 36.4091 91.2934 38.0193 90.1766L68.3808 69.1191L71.728 86.4616Z" fill="#FFB8B8"/>
<path d="M88.4645 88.1535C81.4844 85.061 75.1373 88.4204 67.1258 91.1144L65.8706 68.6961C73.8257 64.4097 81.4103 63.254 88.4645 66.5811L88.4645 88.1535Z" fill="#FF6363"/>
<path d="M96.8143 57.8054C104.191 57.8054 110.171 51.7599 110.171 44.3024C110.171 36.8448 104.191 30.7993 96.8143 30.7993C89.4376 30.7993 83.4575 36.8448 83.4575 44.3024C83.4575 51.7599 89.4376 57.8054 96.8143 57.8054Z" fill="#FFB8B8"/>
<path d="M112.793 42.5985C99.5688 43.9079 89.492 41.7215 83.0518 35.4959V30.4822H111.671L112.793 42.5985Z" fill="#2F2E41"/>
</svg>
