<svg width="103" height="26" viewBox="0 0 103 26" fill="none" xmlns="http://www.w3.org/2000/svg">
<path d="M16.4844 20.4688L16.4688 19.4375C16.4688 18.0729 16.1771 17.3021 15.5938 17.125C15.5 17.1042 15.375 17.0781 15.2188 17.0469C15.0625 17.0052 14.9479 16.9688 14.875 16.9375C14.6875 16.6875 14.5938 16.3333 14.5938 15.875C14.5938 15.4167 14.6094 15.1094 14.6406 14.9531C15.3385 14.8802 16.2083 14.8438 17.25 14.8438C18.2917 14.8438 19.4167 14.8802 20.625 14.9531C20.9479 15.2969 21.1094 15.8177 21.1094 16.5156C21.151 17.1302 21.1719 17.9115 21.1719 18.8594C21.1719 19.8073 21.1302 20.9167 21.0469 22.1875C20.6406 23.1458 19.6927 23.9479 18.2031 24.5938C16.724 25.2292 14.9948 25.5469 13.0156 25.5469C10.6719 25.5469 8.51042 25.0208 6.53125 23.9688C5.44792 23.3958 4.49479 22.6927 3.67188 21.8594C2.85938 21.0156 2.19792 19.9375 1.6875 18.625C1.17708 17.3125 0.921875 15.8698 0.921875 14.2969C0.921875 12.724 1.15104 11.276 1.60938 9.95312C2.07812 8.63021 2.72917 7.47917 3.5625 6.5C4.39583 5.52083 5.38542 4.6875 6.53125 4C8.85417 2.61458 11.6094 1.92188 14.7969 1.92188C16.4635 1.92188 18.1719 2.125 19.9219 2.53125C20.1198 2.76042 20.2188 3.05208 20.2188 3.40625C20.2188 3.75 20.2188 3.97396 20.2188 4.07812L19.9844 7.78125C19.3281 8.16667 18.7344 8.35938 18.2031 8.35938C17.6719 8.35938 17.2448 8.28125 16.9219 8.125C16.6094 7.96875 16.3802 7.74479 16.2344 7.45312C15.9844 6.95312 15.8594 6.45312 15.8594 5.95312C15.8594 5.45312 15.8698 5.00521 15.8906 4.60938C15.3281 4.40104 14.5521 4.29688 13.5625 4.29688C12.5833 4.29688 11.7708 4.38542 11.125 4.5625C10.4792 4.73958 9.83854 5.04688 9.20312 5.48438C8.57812 5.92188 8.03125 6.46875 7.5625 7.125C6.53125 8.59375 6.01562 10.6146 6.01562 13.1875C6.01562 16.8333 7.20833 19.5573 9.59375 21.3594C10.9167 22.3594 12.3646 22.8594 13.9375 22.8594C14.6875 22.8594 15.224 22.8073 15.5469 22.7031C15.8698 22.599 16.1354 22.4062 16.3438 22.125C16.4375 21.9896 16.4844 21.4375 16.4844 20.4688ZM26.6562 1.0625C27.2708 0.541667 27.9375 0.28125 28.6562 0.28125C29.375 0.28125 29.9688 0.505208 30.4375 0.953125C30.9062 1.39062 31.1406 2.01042 31.1406 2.8125C31.1406 3.61458 30.8385 4.29167 30.2344 4.84375C29.6302 5.38542 28.9375 5.65625 28.1562 5.65625C27.3854 5.65625 26.776 5.41667 26.3281 4.9375C25.8906 4.45833 25.6719 3.84375 25.6719 3.09375C25.6719 2.34375 26 1.66667 26.6562 1.0625ZM26.2344 12.4844C26.2344 11.6927 25.9583 11.224 25.4062 11.0781C25.0521 10.9635 24.5521 10.8802 23.9062 10.8281C23.8333 10.5156 23.7969 10.2812 23.7969 10.125C23.7969 9.95833 23.8021 9.82812 23.8125 9.73438C25.3125 8.89062 27.1927 8.46875 29.4531 8.46875C29.8177 8.46875 30.0885 8.47396 30.2656 8.48438C30.5573 8.94271 30.7604 9.83854 30.875 11.1719C30.9583 11.776 31 12.6875 31 13.9062C31 15.125 30.9583 18.8333 30.875 25.0312C29.7188 25.2292 28.7552 25.3281 27.9844 25.3281C27.224 25.3281 26.5781 25.2292 26.0469 25.0312C26.2344 22.5208 26.3281 20.276 26.3281 18.2969C26.3281 16.3073 26.2969 14.3698 26.2344 12.4844ZM48.1719 8.01562C50.1302 8.01562 51.1094 8.95312 51.1094 10.8281C51.1094 12.276 50.349 14.2604 48.8281 16.7812C46.8698 20.0208 45.3698 22.8802 44.3281 25.3594C43.9531 25.5052 43.5365 25.5781 43.0781 25.5781C42.6198 25.5781 42.1719 25.4896 41.7344 25.3125C41.2969 25.1354 40.9948 24.9375 40.8281 24.7188C40.6719 24.5 40.3177 23.7083 39.7656 22.3438C39.224 20.9792 38.651 19.5521 38.0469 18.0625C37.4531 16.5729 36.7865 15.1354 36.0469 13.75C35.3073 12.3646 34.6875 11.5156 34.1875 11.2031C34.0208 11.099 33.5208 11.0156 32.6875 10.9531C32.6771 10.8698 32.6615 10.7812 32.6406 10.6875C32.6198 10.5833 32.6042 10.5052 32.5938 10.4531C32.5625 10.2344 32.5625 10.0365 32.5938 9.85938C34.1042 9.01562 35.7969 8.59375 37.6719 8.59375C38.0156 8.59375 38.2708 8.59896 38.4375 8.60938C38.8646 9.05729 39.5052 10.3229 40.3594 12.4062C41.2135 14.4792 42.2708 17.5365 43.5312 21.5781C45.7708 15.0677 46.9427 11.2917 47.0469 10.25C47.0781 9.98958 47.0938 9.69792 47.0938 9.375C47.0938 9.04167 46.9948 8.72396 46.7969 8.42188C46.7969 8.32812 46.9479 8.23958 47.25 8.15625C47.5521 8.0625 47.8594 8.01562 48.1719 8.01562ZM57.9375 18.25C58.25 19.7917 58.9167 21.0365 59.9375 21.9844C60.9583 22.9323 62.151 23.4062 63.5156 23.4062C64.8802 23.4062 66.2552 22.8177 67.6406 21.6406C68.1615 21.9844 68.4792 22.3906 68.5938 22.8594C67.6354 23.974 66.2188 24.7708 64.3438 25.25C63.5833 25.4479 62.7031 25.5469 61.7031 25.5469C60.7135 25.5469 59.6875 25.3646 58.625 25C57.5625 24.6458 56.6094 24.125 55.7656 23.4375C54.9323 22.75 54.2708 21.849 53.7812 20.7344C53.2917 19.6094 53.0469 18.3646 53.0469 17C53.0469 15.6354 53.2969 14.401 53.7969 13.2969C54.2969 12.1823 54.9583 11.2708 55.7812 10.5625C57.5 9.07292 59.4688 8.32812 61.6875 8.32812C63.6354 8.32812 65.3229 8.85417 66.75 9.90625C67.4375 10.4271 67.9844 11.1042 68.3906 11.9375C68.8073 12.7604 69.0156 13.6927 69.0156 14.7344C69.0156 16.5156 68.4271 17.4531 67.25 17.5469L57.9375 18.25ZM64.8125 14.2656C64.8125 13.026 64.4688 12.0573 63.7812 11.3594C63.0938 10.6615 62.1927 10.3125 61.0781 10.3125C59.9635 10.3125 59.1198 10.8385 58.5469 11.8906C57.974 12.9323 57.6875 14.3802 57.6875 16.2344C60.2812 15.9531 62.625 15.6562 64.7188 15.3438C64.7812 14.9688 64.8125 14.6094 64.8125 14.2656ZM82.5469 14.5156C82.5469 12.7344 82.1406 11.8438 81.3281 11.8438C80.7344 11.8438 80.1667 12.0156 79.625 12.3594C79.0833 12.6927 78.5 13.1615 77.875 13.7656C77.875 14.8073 77.8438 18.5625 77.7812 25.0312C76.625 25.2292 75.6771 25.3281 74.9375 25.3281C74.2083 25.3281 73.5781 25.2292 73.0469 25.0312C73.1719 23.3021 73.2344 20.3385 73.2344 16.1406V12.4844C73.2344 11.6927 72.9583 11.224 72.4062 11.0781C72.0312 10.9635 71.526 10.8802 70.8906 10.8281C70.8177 10.5156 70.7812 10.2812 70.7812 10.125C70.7812 9.95833 70.7865 9.82812 70.7969 9.73438C72.2969 8.89062 74.151 8.46875 76.3594 8.46875C76.724 8.46875 76.9948 8.47396 77.1719 8.48438C77.474 9.00521 77.651 9.54688 77.7031 10.1094C77.7656 10.6719 77.8125 11.2083 77.8438 11.7188C79.2396 10.0208 80.4167 8.98958 81.375 8.625C81.8333 8.44792 82.3177 8.35938 82.8281 8.35938C83.8698 8.35938 84.7031 8.65104 85.3281 9.23438C85.9635 9.80729 86.2812 10.651 86.2812 11.7656C86.2812 12.6198 85.9688 13.3333 85.3438 13.9062C84.7292 14.4688 83.9844 14.75 83.1094 14.75C82.9219 14.75 82.7344 14.7344 82.5469 14.7031V14.5156ZM89.4688 20.0312C89.7083 19.9896 90.0521 19.9688 90.5 19.9688C90.9583 19.9688 91.5625 20.151 92.3125 20.5156C92.3021 20.599 92.2969 20.7552 92.2969 20.9844C92.2969 21.2135 92.349 21.4948 92.4531 21.8281C92.5677 22.1615 92.7396 22.4688 92.9688 22.75C93.4688 23.375 94.2917 23.6875 95.4375 23.6875C96.5833 23.6875 97.3333 23.3021 97.6875 22.5312C97.9896 21.8229 97.9375 21.0885 97.5312 20.3281C97.2292 19.7656 96.4219 19.2292 95.1094 18.7188C94.8906 18.6354 94.5885 18.5208 94.2031 18.375C90.7448 17.1354 88.9948 15.3438 88.9531 13C88.9531 11.9375 89.25 11.0417 89.8438 10.3125C90.9688 8.94792 92.8698 8.26562 95.5469 8.26562C97.3073 8.26562 98.7917 8.63021 100 9.35938C101.219 10.0885 101.828 10.9844 101.828 12.0469C101.828 13.2344 101.25 13.8281 100.094 13.8281C99.2708 13.8281 98.6927 13.7396 98.3594 13.5625C98.026 13.375 97.8594 13.2708 97.8594 13.25C97.8594 13.1875 97.8594 13.1302 97.8594 13.0781C97.8594 11.1302 96.9115 10.1562 95.0156 10.1562C94.3594 10.1562 93.8385 10.3281 93.4531 10.6719C93.0781 11.0052 92.8906 11.5 92.8906 12.1562C92.8906 12.8021 93.1198 13.3385 93.5781 13.7656C94.0469 14.1927 94.9427 14.6719 96.2656 15.2031C97.599 15.7344 98.4531 16.0938 98.8281 16.2812C101.172 17.4167 102.344 18.8854 102.344 20.6875C102.344 22.25 101.682 23.4531 100.359 24.2969C99.0469 25.1302 97.2969 25.5469 95.1094 25.5469C93.6615 25.5469 92.5677 25.4219 91.8281 25.1719C91.0885 24.9219 90.526 24.6927 90.1406 24.4844C89.7656 24.276 89.4531 24.0573 89.2031 23.8281C88.9635 23.599 88.7604 23.3594 88.5938 23.1094C88.1458 22.4531 88.0156 21.7865 88.2031 21.1094C88.3594 20.5365 88.7812 20.1771 89.4688 20.0312Z" fill="white"/>
</svg>
