<svg width="20" height="20" viewBox="0 0 20 20" fill="none" xmlns="http://www.w3.org/2000/svg">
<path fill-rule="evenodd" clip-rule="evenodd" d="M4.18173 9.99989C4.18173 9.36478 4.28946 8.75589 4.48173 8.18478L1.11627 5.66833C0.460366 6.97234 0.0908203 8.44167 0.0908203 9.99989C0.0908203 11.5568 0.459911 13.0252 1.11491 14.3283L4.47855 11.807C4.28809 11.2386 4.18173 10.6319 4.18173 9.99989Z" fill="#FBBC05"/>
<path fill-rule="evenodd" clip-rule="evenodd" d="M10.0908 4.22217C11.4998 4.22217 12.7726 4.71106 13.7726 5.51106L16.6817 2.66661C14.9089 1.1555 12.6362 0.222168 10.0908 0.222168C6.13894 0.222168 2.74257 2.43506 1.11621 5.66839L4.48167 8.18483C5.25712 5.87995 7.46757 4.22217 10.0908 4.22217Z" fill="#EB4335"/>
<path fill-rule="evenodd" clip-rule="evenodd" d="M10.0908 15.7777C7.46757 15.7777 5.25712 14.12 4.48167 11.8151L1.11621 14.3311C2.74257 17.5648 6.13894 19.7777 10.0908 19.7777C12.5298 19.7777 14.8585 18.9297 16.6062 17.3408L13.4117 14.9226C12.5103 15.4786 11.3753 15.7777 10.0908 15.7777Z" fill="#34A853"/>
<path fill-rule="evenodd" clip-rule="evenodd" d="M19.6363 9.99995C19.6363 9.42217 19.5454 8.79995 19.409 8.22217H10.0908V11.9999H15.4545C15.1863 13.2879 14.4563 14.2782 13.4117 14.9226L16.6063 17.3408C18.4422 15.6724 19.6363 13.1871 19.6363 9.99995Z" fill="#4285F4"/>
</svg>
