<svg width="150" height="150" viewBox="0 0 150 150" fill="none" xmlns="http://www.w3.org/2000/svg">
<g clip-path="url(#clip0)">
<path d="M82.1062 21.2595C82.1062 11.886 74.5075 4.28723 65.1339 4.28723C55.7604 4.28723 48.1616 11.886 48.1616 21.2595V45.293C48.1616 54.6665 55.7604 62.2653 65.1339 62.2653C74.5075 62.2653 82.1062 54.6665 82.1062 45.293V21.2595Z" fill="black"/>
<path d="M46.4107 33.2747C43.6915 33.282 41.0857 34.3654 39.1629 36.2882C37.2401 38.211 36.1566 40.8168 36.1494 43.5361V83.3026C36.1574 86.0216 37.2411 88.6269 39.1638 90.5496C41.0864 92.4722 43.6917 93.5559 46.4107 93.5639V93.5639C49.1295 93.5551 51.7344 92.4711 53.6569 90.5487C55.5793 88.6262 56.6633 86.0213 56.6721 83.3026V43.5422C56.6657 40.8221 55.5827 38.2152 53.6599 36.2913C51.7371 34.3673 49.1308 33.2828 46.4107 33.2747V33.2747Z" fill="black"/>
<path d="M114.343 34.9129C114.343 22.3963 104.196 12.2497 91.6794 12.2497C79.1628 12.2497 69.0161 22.3963 69.0161 34.9129V80.2546C69.0161 92.7712 79.1628 102.918 91.6794 102.918C104.196 102.918 114.343 92.7712 114.343 80.2546V34.9129Z" fill="black"/>
<path d="M36.1494 102.918C41.3154 102.918 45.5033 98.7299 45.5033 93.5639C45.5033 88.3978 41.3154 84.2099 36.1494 84.2099C30.9833 84.2099 26.7954 88.3978 26.7954 93.5639C26.7954 98.7299 30.9833 102.918 36.1494 102.918Z" fill="#FFE5DE"/>
<path d="M114.343 102.918C119.509 102.918 123.697 98.7299 123.697 93.5639C123.697 88.3978 119.509 84.2099 114.343 84.2099C109.177 84.2099 104.989 88.3978 104.989 93.5639C104.989 98.7299 109.177 102.918 114.343 102.918Z" fill="#FFE5DE"/>
<path d="M83.3299 116.577H67.8892V144.956H83.3299V116.577Z" fill="#FFE5DE"/>
<path d="M69.3661 132.414H81.7041C83.9144 132.414 86.0341 133.292 87.5971 134.855C89.16 136.418 90.038 138.538 90.038 140.748V159.657H61.0322V140.748C61.0322 138.538 61.9103 136.418 63.4732 134.855C65.0361 133.292 67.1558 132.414 69.3661 132.414V132.414Z" fill="#7CE6E6"/>
<path d="M75.246 123.233C96.8385 123.233 114.343 104.448 114.343 81.2747C114.343 58.1015 96.8385 39.3159 75.246 39.3159C53.6536 39.3159 36.1494 58.1015 36.1494 81.2747C36.1494 104.448 53.6536 123.233 75.246 123.233Z" fill="#FFE5DE"/>
<path d="M57.4518 83.8202C63.6823 83.8202 68.7332 78.7694 68.7332 72.5388C68.7332 66.3083 63.6823 61.2574 57.4518 61.2574C51.2213 61.2574 46.1704 66.3083 46.1704 72.5388C46.1704 78.7694 51.2213 83.8202 57.4518 83.8202Z" fill="#FFFEF9"/>
<path d="M57.4519 84.9316C55.0008 84.9316 52.6048 84.2047 50.5668 82.843C48.5288 81.4813 46.9404 79.5458 46.0024 77.2813C45.0645 75.0168 44.819 72.5251 45.2972 70.1211C45.7754 67.7171 46.9557 65.509 48.6888 63.7758C50.422 62.0426 52.6302 60.8623 55.0341 60.3842C57.4381 59.906 59.9299 60.1514 62.1944 61.0894C64.4588 62.0274 66.3943 63.6158 67.7561 65.6537C69.1178 67.6917 69.8446 70.0877 69.8446 72.5388C69.8406 75.8243 68.5336 78.9741 66.2104 81.2974C63.8872 83.6206 60.7374 84.9275 57.4519 84.9316V84.9316ZM57.4519 62.3719C55.441 62.3719 53.4754 62.9681 51.8034 64.0853C50.1315 65.2025 48.8283 66.7903 48.0588 68.6481C47.2893 70.5058 47.088 72.5501 47.4803 74.5223C47.8726 76.4945 48.8409 78.306 50.2627 79.7279C51.6846 81.1498 53.4962 82.1181 55.4684 82.5104C57.4406 82.9027 59.4848 82.7013 61.3426 81.9318C63.2003 81.1623 64.7882 79.8592 65.9054 78.1873C67.0225 76.5153 67.6188 74.5496 67.6188 72.5388C67.6156 69.8433 66.5434 67.2592 64.6374 65.3532C62.7314 63.4473 60.1473 62.3751 57.4519 62.3719V62.3719Z" fill="#707070"/>
<path d="M92.6261 83.8202C98.8566 83.8202 103.907 78.7694 103.907 72.5388C103.907 66.3083 98.8566 61.2574 92.6261 61.2574C86.3956 61.2574 81.3447 66.3083 81.3447 72.5388C81.3447 78.7694 86.3956 83.8202 92.6261 83.8202Z" fill="#FFFEF9"/>
<path d="M92.6262 84.9316C90.1751 84.9316 87.7791 84.2047 85.7411 82.843C83.7031 81.4813 82.1147 79.5458 81.1767 77.2813C80.2388 75.0168 79.9933 72.5251 80.4715 70.1211C80.9497 67.7171 82.13 65.509 83.8632 63.7758C85.5963 62.0426 87.8045 60.8623 90.2085 60.3842C92.6124 59.906 95.1042 60.1514 97.3687 61.0894C99.6332 62.0274 101.569 63.6158 102.93 65.6537C104.292 67.6917 105.019 70.0877 105.019 72.5388C105.015 75.8243 103.708 78.9741 101.385 81.2974C99.0615 83.6206 95.9117 84.9275 92.6262 84.9316V84.9316ZM92.6262 62.3719C90.6153 62.3719 88.6497 62.9681 86.9777 64.0853C85.3058 65.2025 84.0027 66.7903 83.2331 68.6481C82.4636 70.5058 82.2623 72.5501 82.6546 74.5223C83.0469 76.4945 84.0152 78.306 85.4371 79.7279C86.8589 81.1498 88.6705 82.1181 90.6427 82.5104C92.6149 82.9027 94.6591 82.7013 96.5169 81.9318C98.3747 81.1623 99.9625 79.8592 101.08 78.1873C102.197 76.5153 102.793 74.5496 102.793 72.5388C102.79 69.8433 101.718 67.2592 99.8117 65.3532C97.9058 63.4473 95.3216 62.3751 92.6262 62.3719V62.3719Z" fill="#707070"/>
<path d="M68.733 73.6532C68.4714 73.6518 68.2187 73.5585 68.019 73.3895C67.8194 73.2206 67.6855 72.9868 67.6409 72.7291C67.5962 72.4713 67.6436 72.2061 67.7748 71.9799C67.906 71.7536 68.1126 71.5807 68.3584 71.4914C72.6944 69.9415 77.1887 69.9385 81.7073 71.4914C81.9761 71.5951 82.1943 71.799 82.3161 72.0602C82.4378 72.3213 82.4537 72.6195 82.3603 72.8921C82.2669 73.1647 82.0716 73.3906 81.8153 73.5223C81.559 73.654 81.2617 73.6813 80.9857 73.5984C76.8994 72.1978 73.0111 72.1978 69.1105 73.5984C68.9889 73.6389 68.8611 73.6575 68.733 73.6532V73.6532Z" fill="#707070"/>
<path d="M57.9995 75.0844C57.5518 75.0828 57.1229 74.9042 56.8063 74.5876C56.4897 74.271 56.3112 73.8421 56.3096 73.3944V70.8002C56.3104 70.3519 56.4886 69.9223 56.8052 69.605C57.1219 69.2878 57.5513 69.1088 57.9995 69.1072V69.1072C58.4477 69.1088 58.8771 69.2878 59.1937 69.605C59.5104 69.9223 59.6886 70.3519 59.6894 70.8002V73.3823C59.6902 73.605 59.6471 73.8257 59.5627 74.0318C59.4782 74.2378 59.3539 74.4253 59.197 74.5833C59.0401 74.7414 58.8535 74.867 58.6481 74.9529C58.4426 75.0389 58.2222 75.0836 57.9995 75.0844V75.0844Z" fill="#707070"/>
<path d="M92.626 75.0844C92.1783 75.0828 91.7493 74.9042 91.4328 74.5876C91.1162 74.271 90.9376 73.8421 90.936 73.3944V70.8002C90.94 70.3541 91.1197 69.9275 91.436 69.6129C91.7523 69.2983 92.1798 69.121 92.626 69.1194V69.1194C93.0742 69.121 93.5036 69.3 93.8202 69.6172C94.1369 69.9344 94.3151 70.3641 94.3159 70.8124V73.3823C94.3171 73.6051 94.2743 73.826 94.1899 74.0322C94.1056 74.2385 93.9813 74.4261 93.8243 74.5842C93.6673 74.7423 93.4807 74.8679 93.275 74.9537C93.0694 75.0396 92.8488 75.084 92.626 75.0844Z" fill="#707070"/>
<path d="M75.4896 94.6692C70.6177 94.6692 65.6576 93.2351 60.6548 90.3728C60.5281 90.3003 60.4168 90.2034 60.3275 90.0879C60.2382 89.9723 60.1725 89.8403 60.1342 89.6994C60.0958 89.5584 60.0857 89.4113 60.1042 89.2664C60.1228 89.1215 60.1697 88.9817 60.2422 88.855C60.3148 88.7282 60.4116 88.617 60.5272 88.5276C60.6428 88.4383 60.7748 88.3726 60.9157 88.3343C61.0567 88.296 61.2038 88.2858 61.3487 88.3044C61.4935 88.3229 61.6334 88.3698 61.7601 88.4424C71.1476 93.8136 79.9595 93.8197 88.7045 88.4576C88.9561 88.3034 89.2586 88.2554 89.5455 88.3242C89.6876 88.3582 89.8216 88.42 89.9398 88.5058C90.058 88.5917 90.1582 88.7 90.2346 88.8245C90.3109 88.9491 90.362 89.0874 90.3849 89.2318C90.4078 89.3761 90.4021 89.5234 90.368 89.6655C90.3339 89.8076 90.2722 89.9416 90.1864 90.0598C90.1005 90.178 89.9922 90.2782 89.8677 90.3546C85.1785 93.229 80.3858 94.6692 75.4896 94.6692Z" fill="#707070"/>
<path d="M68.38 143.455H61.0356V184.482H68.38V143.455Z" fill="#FFE5DE"/>
<path d="M82.6967 184.479H90.041V143.452H82.6967V184.479Z" fill="#FFE5DE"/>
</g>
<defs>
<clipPath id="clip0">
<rect width="150" height="150" fill="white"/>
</clipPath>
</defs>
</svg>
