<svg width="180" height="160" viewBox="0 0 180 160" fill="none" xmlns="http://www.w3.org/2000/svg">
<circle cx="130" cy="50" r="50" fill="#F1E4FF"/>
<path d="M20.3662 73.3333H33.3333C40.6971 73.3333 46.6667 79.3029 46.6667 86.6667V93.3333C46.6667 100.697 52.6362 106.667 60 106.667C67.3638 106.667 73.3333 112.636 73.3333 120V139.634M53.3333 26.2368V36.6667C53.3333 45.8714 60.7953 53.3333 70 53.3333H73.3333C80.6971 53.3333 86.6667 59.3029 86.6667 66.6667C86.6667 74.0305 92.6362 80 100 80C107.364 80 113.333 74.0305 113.333 66.6667C113.333 59.3029 119.303 53.3333 126.667 53.3333L133.763 53.3333M100 136.586V120C100 112.636 105.97 106.667 113.333 106.667H133.763M140 80C140 113.137 113.137 140 80 140C46.8629 140 20 113.137 20 80C20 46.8629 46.8629 20 80 20C113.137 20 140 46.8629 140 80Z" stroke="#111827" stroke-width="5" stroke-linecap="round" stroke-linejoin="round"/>
</svg>
