<svg width="160" height="160" viewBox="0 0 160 160" fill="none" xmlns="http://www.w3.org/2000/svg">
<circle cx="110" cy="50" r="50" fill="#F1E4FF"/>
<path d="M140 80C140 113.137 113.137 140 80 140M140 80C140 46.8629 113.137 20 80 20M140 80H20M80 140C46.8629 140 20 113.137 20 80M80 140C91.0457 140 100 113.137 100 80C100 46.8629 91.0457 20 80 20M80 140C68.9543 140 60 113.137 60 80C60 46.8629 68.9543 20 80 20M20 80C20 46.8629 46.8629 20 80 20" stroke="#111827" stroke-width="6" stroke-linecap="round" stroke-linejoin="round"/>
</svg>
