<svg
    width="20"
    height="20"
    viewBox="0 0 24 24"
    fill="#ffffff"
    xmlns="http://www.w3.org/2000/svg"
>
    <mask id="path-1-inside-1" fill="white">
        <path d="M24 12C24 14.3734 23.2962 16.6935 21.9776 18.6668C20.6591 20.6402 18.7849 22.1783 16.5922 23.0866C14.3995 23.9948 11.9867 24.2324 9.65892 23.7694C7.33114 23.3064 5.19295 22.1635 3.51472 20.4853C1.83649 18.8071 0.693599 16.6689 0.230577 14.3411C-0.232446 12.0133 0.00519403 9.60051 0.913446 7.4078C1.8217 5.21509 3.35977 3.34094 5.33316 2.02236C7.30655 0.703788 9.62662 -2.83022e-08 12 0L12 2.44453C10.1101 2.44453 8.26266 3.00495 6.69127 4.05492C5.11988 5.10489 3.89513 6.59725 3.1719 8.34328C2.44867 10.0893 2.25944 12.0106 2.62814 13.8642C2.99684 15.7178 3.90691 17.4204 5.24327 18.7567C6.57962 20.0931 8.28224 21.0032 10.1358 21.3719C11.9894 21.7406 13.9107 21.5513 15.6567 20.8281C17.4028 20.1049 18.8951 18.8801 19.9451 17.3087C20.995 15.7373 21.5555 13.8899 21.5555 12H24Z" />
    </mask>
    <path
        d="M24 12C24 14.3734 23.2962 16.6935 21.9776 18.6668C20.6591 20.6402 18.7849 22.1783 16.5922 23.0866C14.3995 23.9948 11.9867 24.2324 9.65892 23.7694C7.33114 23.3064 5.19295 22.1635 3.51472 20.4853C1.83649 18.8071 0.693599 16.6689 0.230577 14.3411C-0.232446 12.0133 0.00519403 9.60051 0.913446 7.4078C1.8217 5.21509 3.35977 3.34094 5.33316 2.02236C7.30655 0.703788 9.62662 -2.83022e-08 12 0L12 2.44453C10.1101 2.44453 8.26266 3.00495 6.69127 4.05492C5.11988 5.10489 3.89513 6.59725 3.1719 8.34328C2.44867 10.0893 2.25944 12.0106 2.62814 13.8642C2.99684 15.7178 3.90691 17.4204 5.24327 18.7567C6.57962 20.0931 8.28224 21.0032 10.1358 21.3719C11.9894 21.7406 13.9107 21.5513 15.6567 20.8281C17.4028 20.1049 18.8951 18.8801 19.9451 17.3087C20.995 15.7373 21.5555 13.8899 21.5555 12H24Z"
        stroke="white"
        strokeWidth="4"
        strokeLinejoin="round"
        mask="url(#path-1-inside-1)"
    />
</svg>