<svg width="32" height="32" viewBox="0 0 32 32" fill="none" xmlns="http://www.w3.org/2000/svg">
<path d="M30.6668 7.99998V2.66665C30.6668 2.31302 30.5264 1.97388 30.2763 1.72384C30.0263 1.47379 29.6871 1.33331 29.3335 1.33331H2.66683C2.31321 1.33331 1.97407 1.47379 1.72402 1.72384C1.47397 1.97388 1.3335 2.31302 1.3335 2.66665V7.99998H30.6668Z" fill="#2EC5CE"/>
<path d="M1.3335 10.6666V29.3333C1.3335 29.6869 1.47397 30.0261 1.72402 30.2761C1.97407 30.5262 2.31321 30.6666 2.66683 30.6666H9.3335V10.6666H1.3335Z" fill="#D6B1FF"/>
<path d="M12 30.6666H29.3333C29.687 30.6666 30.0261 30.5262 30.2761 30.2761C30.5262 30.0261 30.6667 29.6869 30.6667 29.3333V10.6666H12V30.6666Z" fill="#8C30F5"/>
</svg>
