<svg width="32" height="32" viewBox="0 0 32 32" fill="none" xmlns="http://www.w3.org/2000/svg">
<path d="M6.66683 1.33331H2.66683C2.31321 1.33331 1.97407 1.47379 1.72402 1.72384C1.47397 1.97388 1.3335 2.31302 1.3335 2.66665V29.3333C1.3335 29.6869 1.47397 30.0261 1.72402 30.2761C1.97407 30.5262 2.31321 30.6666 2.66683 30.6666H6.66683V1.33331Z" fill="#D6B1FF"/>
<path d="M9.3335 30.6666H22.6668V1.33331H9.3335V30.6666ZM16.0002 25.3333C15.6465 25.3333 15.3074 25.1928 15.0574 24.9428C14.8073 24.6927 14.6668 24.3536 14.6668 24C14.6668 23.6464 14.8073 23.3072 15.0574 23.0572C15.3074 22.8071 15.6465 22.6666 16.0002 22.6666C16.3538 22.6666 16.6929 22.8071 16.943 23.0572C17.193 23.3072 17.3335 23.6464 17.3335 24C17.3335 24.3536 17.193 24.6927 16.943 24.9428C16.6929 25.1928 16.3538 25.3333 16.0002 25.3333ZM16.0002 6.66665C16.3538 6.66665 16.6929 6.80712 16.943 7.05717C17.193 7.30722 17.3335 7.64636 17.3335 7.99998C17.3335 8.3536 17.193 8.69274 16.943 8.94279C16.6929 9.19284 16.3538 9.33331 16.0002 9.33331C15.6465 9.33331 15.3074 9.19284 15.0574 8.94279C14.8073 8.69274 14.6668 8.3536 14.6668 7.99998C14.6668 7.64636 14.8073 7.30722 15.0574 7.05717C15.3074 6.80712 15.6465 6.66665 16.0002 6.66665ZM16.0002 14.6666C16.3538 14.6666 16.6929 14.8071 16.943 15.0572C17.193 15.3072 17.3335 15.6464 17.3335 16C17.3335 16.3536 17.193 16.6927 16.943 16.9428C16.6929 17.1928 16.3538 17.3333 16.0002 17.3333C15.6465 17.3333 15.3074 17.1928 15.0574 16.9428C14.8073 16.6927 14.6668 16.3536 14.6668 16C14.6668 15.6464 14.8073 15.3072 15.0574 15.0572C15.3074 14.8071 15.6465 14.6666 16.0002 14.6666Z" fill="#8C30F5"/>
<path d="M29.3335 1.33331H25.3335V30.6666H29.3335C29.6871 30.6666 30.0263 30.5262 30.2763 30.2761C30.5264 30.0261 30.6668 29.6869 30.6668 29.3333V2.66665C30.6668 2.31302 30.5264 1.97388 30.2763 1.72384C30.0263 1.47379 29.6871 1.33331 29.3335 1.33331Z" fill="#2EC5CE"/>
</svg>
